HIERARCHY
ROOT Hips
{
	OFFSET 0.053599 88.859886 3.107447
	CHANNELS 6 Xposition Yposition Zposition Zrotation Yrotation Xrotation 
	JOINT Spine
	{
		OFFSET -0.000000 8.814246 -2.080107
		CHANNELS 3 Zrotation Yrotation Xrotation
		JOINT Spine1
		{
			OFFSET 0.000000 8.844141 0.000000
			CHANNELS 3 Zrotation Yrotation Xrotation
			JOINT Spine2
			{
				OFFSET -0.000000 11.682268 0.000000
				CHANNELS 3 Zrotation Yrotation Xrotation
				JOINT Spine3
				{
					OFFSET 0.000000 11.746700 0.000000
					CHANNELS 3 Zrotation Yrotation Xrotation
					JOINT Neck
					{
						OFFSET -0.000000 17.658264 -0.000000
						CHANNELS 3 Zrotation Yrotation Xrotation
						JOINT Neck1
						{
							OFFSET -0.000000 5.101515 -0.000000
							CHANNELS 3 Zrotation Yrotation Xrotation
							JOINT Head
							{
								OFFSET 0.000000 5.101515 0.000000
								CHANNELS 3 Zrotation Yrotation Xrotation
								JOINT HeadEnd
								{
									OFFSET 0.000000 11.655085 0.000000
									CHANNELS 3 Zrotation Yrotation Xrotation
									End Site
									{
										OFFSET 0.000000 0.000000 0.000000
									}
								}
							}
						}
					}
					JOINT RightShoulder
					{
						OFFSET -2.625389 11.175210 0.000000
						CHANNELS 3 Zrotation Yrotation Xrotation
						JOINT RightArm
						{
							OFFSET -0.000000 10.434715 -0.000000
							CHANNELS 3 Zrotation Yrotation Xrotation
							JOINT RightForeArm
							{
								OFFSET -0.000000 29.628420 0.000000
								CHANNELS 3 Zrotation Yrotation Xrotation
								JOINT RightHand
								{
									OFFSET -0.000000 22.857611 0.000000
									CHANNELS 3 Zrotation Yrotation Xrotation
									JOINT RightHandThumb1
									{
										OFFSET -2.867323 3.959563 2.944291
										CHANNELS 3 Zrotation Yrotation Xrotation
										JOINT RightHandThumb2
										{
											OFFSET 0.000000 3.350399 0.000000
											CHANNELS 3 Zrotation Yrotation Xrotation
											JOINT RightHandThumb3
											{
												OFFSET 0.000000 3.756509 -0.000000
												CHANNELS 3 Zrotation Yrotation Xrotation
												JOINT RightHandThumb4
												{
													OFFSET 0.000000 3.147345 0.000000
													CHANNELS 3 Zrotation Yrotation Xrotation
													End Site
													{
														OFFSET 0.000000 0.000000 0.000000
													}
												}
											}
										}
									}
									JOINT RightHandIndex1
									{
										OFFSET -0.086752 10.030893 2.345280
										CHANNELS 3 Zrotation Yrotation Xrotation
										JOINT RightHandIndex2
										{
											OFFSET -0.000000 4.061090 0.000000
											CHANNELS 3 Zrotation Yrotation Xrotation
											JOINT RightHandIndex3
											{
												OFFSET -0.000000 3.248873 0.000000
												CHANNELS 3 Zrotation Yrotation Xrotation
												JOINT RightHandIndex4
												{
													OFFSET 0.000000 2.639709 -0.000000
													CHANNELS 3 Zrotation Yrotation Xrotation
													End Site
													{
														OFFSET 0.000000 0.000000 0.000000
													}
												}
											}
										}
									}
									JOINT RightHandMiddle1
									{
										OFFSET 0.104102 9.502952 0.006768
										CHANNELS 3 Zrotation Yrotation Xrotation
										JOINT RightHandMiddle2
										{
											OFFSET 0.000000 4.568727 0.000000
											CHANNELS 3 Zrotation Yrotation Xrotation
											JOINT RightHandMiddle3
											{
												OFFSET 0.000000 3.654981 -0.000000
												CHANNELS 3 Zrotation Yrotation Xrotation
												JOINT RightHandMiddle4
												{
													OFFSET -0.000000 2.741236 -0.000000
													CHANNELS 3 Zrotation Yrotation Xrotation
													End Site
													{
														OFFSET 0.000000 0.000000 0.000000
													}
												}
											}
										}
									}
									JOINT RightHandRing1
									{
										OFFSET 0.086752 8.921708 -2.267442
										CHANNELS 3 Zrotation Yrotation Xrotation
										JOINT RightHandRing2
										{
											OFFSET -0.000000 4.061090 0.000000
											CHANNELS 3 Zrotation Yrotation Xrotation
											JOINT RightHandRing3
											{
												OFFSET 0.000000 3.654981 -0.000000
												CHANNELS 3 Zrotation Yrotation Xrotation
												JOINT RightHandRing4
												{
													OFFSET 0.000000 2.741236 -0.000000
													CHANNELS 3 Zrotation Yrotation Xrotation
													End Site
													{
														OFFSET 0.000000 0.000000 0.000000
													}
												}
											}
										}
									}
									JOINT RightHandPinky1
									{
										OFFSET -0.173504 7.976997 -4.467199
										CHANNELS 3 Zrotation Yrotation Xrotation
										JOINT RightHandPinky2
										{
											OFFSET 0.000000 3.350399 -0.000000
											CHANNELS 3 Zrotation Yrotation Xrotation
											JOINT RightHandPinky3
											{
												OFFSET -0.000000 2.842763 0.000000
												CHANNELS 3 Zrotation Yrotation Xrotation
												JOINT RightHandPinky4
												{
													OFFSET -0.000000 2.639709 0.000000
													CHANNELS 3 Zrotation Yrotation Xrotation
													End Site
													{
														OFFSET 0.000000 0.000000 0.000000
													}
												}
											}
										}
									}
									JOINT RightForeArmEnd
									{
										OFFSET 0.000000 0.000000 0.000000
										CHANNELS 3 Zrotation Yrotation Xrotation
										End Site
										{
											OFFSET 0.000000 0.000000 0.000000
										}
									}
								}
								JOINT RightArmEnd
								{
									OFFSET 0.000000 0.000000 0.000000
									CHANNELS 3 Zrotation Yrotation Xrotation
									End Site
									{
										OFFSET 0.000000 0.000000 0.000000
									}
								}
							}
						}
					}
					JOINT LeftShoulder
					{
						OFFSET 2.625389 11.175210 0.000000
						CHANNELS 3 Zrotation Yrotation Xrotation
						JOINT LeftArm
						{
							OFFSET 0.000000 10.813635 -0.000000
							CHANNELS 3 Zrotation Yrotation Xrotation
							JOINT LeftForeArm
							{
								OFFSET 0.000000 28.724781 0.000000
								CHANNELS 3 Zrotation Yrotation Xrotation
								JOINT LeftHand
								{
									OFFSET 0.644384 25.716167 -0.328871
									CHANNELS 3 Zrotation Yrotation Xrotation
									JOINT LeftHandThumb1
									{
										OFFSET 2.867323 3.959563 2.944291
										CHANNELS 3 Zrotation Yrotation Xrotation
										JOINT LeftHandThumb2
										{
											OFFSET 0.000000 3.350399 0.000000
											CHANNELS 3 Zrotation Yrotation Xrotation
											JOINT LeftHandThumb3
											{
												OFFSET -0.000000 3.756509 0.000000
												CHANNELS 3 Zrotation Yrotation Xrotation
												JOINT LeftHandThumb4
												{
													OFFSET -0.000000 3.100000 0.000000
													CHANNELS 3 Zrotation Yrotation Xrotation
													End Site
													{
														OFFSET 0.000000 0.000000 0.000000
													}
												}
											}
										}
									}
									JOINT LeftHandIndex1
									{
										OFFSET 0.086752 10.030893 2.345280
										CHANNELS 3 Zrotation Yrotation Xrotation
										JOINT LeftHandIndex2
										{
											OFFSET -0.000000 4.061090 -0.000000
											CHANNELS 3 Zrotation Yrotation Xrotation
											JOINT LeftHandIndex3
											{
												OFFSET 0.000000 3.248873 -0.000000
												CHANNELS 3 Zrotation Yrotation Xrotation
												JOINT LeftHandIndex4
												{
													OFFSET 0.000000 2.639709 -0.000000
													CHANNELS 3 Zrotation Yrotation Xrotation
													End Site
													{
														OFFSET 0.000000 0.000000 0.000000
													}
												}
											}
										}
									}
									JOINT LeftHandMiddle1
									{
										OFFSET -0.104102 9.502952 0.006768
										CHANNELS 3 Zrotation Yrotation Xrotation
										JOINT LeftHandMiddle2
										{
											OFFSET -0.000000 4.568727 -0.000000
											CHANNELS 3 Zrotation Yrotation Xrotation
											JOINT LeftHandMiddle3
											{
												OFFSET 0.000000 3.654981 0.000000
												CHANNELS 3 Zrotation Yrotation Xrotation
												JOINT LeftHandMiddle4
												{
													OFFSET 0.000000 2.741236 -0.000000
													CHANNELS 3 Zrotation Yrotation Xrotation
													End Site
													{
														OFFSET 0.000000 0.000000 0.000000
													}
												}
											}
										}
									}
									JOINT LeftHandRing1
									{
										OFFSET -0.086752 8.921708 -2.267442
										CHANNELS 3 Zrotation Yrotation Xrotation
										JOINT LeftHandRing2
										{
											OFFSET 0.000000 4.061090 0.000000
											CHANNELS 3 Zrotation Yrotation Xrotation
											JOINT LeftHandRing3
											{
												OFFSET 0.000000 3.654981 0.000000
												CHANNELS 3 Zrotation Yrotation Xrotation
												JOINT LeftHandRing4
												{
													OFFSET 0.000000 2.741236 0.000000
													CHANNELS 3 Zrotation Yrotation Xrotation
													End Site
													{
														OFFSET 0.000000 0.000000 0.000000
													}
												}
											}
										}
									}
									JOINT LeftHandPinky1
									{
										OFFSET 0.173504 7.976997 -4.467199
										CHANNELS 3 Zrotation Yrotation Xrotation
										JOINT LeftHandPinky2
										{
											OFFSET -0.000000 3.350399 -0.000000
											CHANNELS 3 Zrotation Yrotation Xrotation
											JOINT LeftHandPinky3
											{
												OFFSET 0.000000 2.842763 0.000000
												CHANNELS 3 Zrotation Yrotation Xrotation
												JOINT LeftHandPinky4
												{
													OFFSET -0.000000 2.639709 -0.000000
													CHANNELS 3 Zrotation Yrotation Xrotation
													End Site
													{
														OFFSET 0.000000 0.000000 0.000000
													}
												}
											}
										}
									}
									JOINT LeftForeArmEnd
									{
										OFFSET 0.000000 0.000000 0.000000
										CHANNELS 3 Zrotation Yrotation Xrotation
										End Site
										{
											OFFSET 0.000000 0.000000 0.000000
										}
									}
								}
								JOINT LeftArmEnd
								{
									OFFSET 0.000000 0.000000 0.000000
									CHANNELS 3 Zrotation Yrotation Xrotation
									End Site
									{
										OFFSET 0.000000 0.000000 0.000000
									}
								}
							}
						}
					}
				}
			}
		}
	}
	JOINT RightUpLeg
	{
		OFFSET -11.289943 0.000000 0.000000
		CHANNELS 3 Zrotation Yrotation Xrotation
		JOINT RightLeg
		{
			OFFSET 0.000000 -38.200325 0.000000
			CHANNELS 3 Zrotation Yrotation Xrotation
			JOINT RightFoot
			{
				OFFSET -0.000000 -39.900856 -0.000000
				CHANNELS 3 Zrotation Yrotation Xrotation
				JOINT RightToeBase
				{
					OFFSET 0.000000 0.000000 15.261641
					CHANNELS 3 Zrotation Yrotation Xrotation
					JOINT RightToeBaseEnd
					{
						OFFSET 0.000000 0.000000 7.370709
						CHANNELS 3 Zrotation Yrotation Xrotation
						End Site
						{
							OFFSET 0.000000 0.000000 0.000000
						}
					}
				}
				JOINT RightLegEnd
				{
					OFFSET 0.000000 0.000000 0.000000
					CHANNELS 3 Zrotation Yrotation Xrotation
					End Site
					{
						OFFSET 0.000000 0.000000 0.000000
					}
				}
			}
			JOINT RightUpLegEnd
			{
				OFFSET 0.000000 0.000000 0.000000
				CHANNELS 3 Zrotation Yrotation Xrotation
				End Site
				{
					OFFSET 0.000000 0.000000 0.000000
				}
			}
		}
	}
	JOINT LeftUpLeg
	{
		OFFSET 11.315661 -0.000000 0.000000
		CHANNELS 3 Zrotation Yrotation Xrotation
		JOINT LeftLeg
		{
			OFFSET -0.000000 -38.200325 -0.000000
			CHANNELS 3 Zrotation Yrotation Xrotation
			JOINT LeftFoot
			{
				OFFSET 0.000000 -39.900856 -0.000000
				CHANNELS 3 Zrotation Yrotation Xrotation
				JOINT LeftToeBase
				{
					OFFSET -0.000000 -0.000000 15.261641
					CHANNELS 3 Zrotation Yrotation Xrotation
					JOINT LeftToeBaseEnd
					{
						OFFSET 0.000000 -0.000000 7.539996
						CHANNELS 3 Zrotation Yrotation Xrotation
						End Site
						{
							OFFSET 0.000000 0.000000 0.000000
						}
					}
				}
				JOINT LeftLegEnd
				{
					OFFSET 0.000000 0.000000 0.000000
					CHANNELS 3 Zrotation Yrotation Xrotation
					End Site
					{
						OFFSET 0.000000 0.000000 0.000000
					}
				}
			}
			JOINT LeftUpLegEnd
			{
				OFFSET 0.000000 0.000000 0.000000
				CHANNELS 3 Zrotation Yrotation Xrotation
				End Site
				{
					OFFSET 0.000000 0.000000 0.000000
				}
			}
		}
	}
}
MOTION
Frames: 4
Frame Time: 0.016667
0.239153 88.833771 2.974053 -0.394211 -1.240655 -9.809458 1.123972 0.048322 6.907393 -0.782680 0.318506 2.826657 0.395261 -0.796262 3.728093 -0.898746 0.250343 4.196572 1.608701 0.796871 3.942201 0.418122 1.641165 -3.848843 -0.543704 -0.788187 -19.567896 0.000000 0.000000 0.000000 92.438240 -0.257532 9.807257 68.016113 -25.133339 3.453095 0.066934 15.052184 25.387894 -2.340662 6.790037 -6.506440 16.473694 31.258284 65.462410 -4.574826 -5.657187 -10.225976 -3.265378 -3.730291 -6.997838 0.000000 0.000000 0.000000 -13.016635 -6.738288 9.902886 1.005518 0.473078 0.644480 0.743156 0.022731 0.605145 0.000000 0.000000 0.000000 -12.363418 -1.340128 5.706446 -0.073084 0.492261 0.223655 0.378121 -0.001655 0.190755 0.000000 0.000000 0.000000 -10.968654 6.405266 1.495550 0.224222 -0.985792 -0.406488 0.292019 -0.014634 -0.259772 0.000000 0.000000 0.000000 -10.780475 14.603276 -3.523096 0.347261 -1.914032 -1.195581 0.295821 0.075680 -0.984970 0.000000 0.000000 0.000000 0.000000 0.000000 0.000000 0.000000 0.000000 0.000000 -89.645363 0.071322 5.737179 -72.213699 16.256422 -5.309039 -0.138856 -10.392469 50.033890 10.556034 -12.157176 -12.330227 -15.531725 -31.644142 66.472122 3.343388 3.745349 -7.094932 2.325933 2.567260 -4.972450 0.000000 0.000000 0.000000 16.246370 -12.092453 15.748410 -1.184451 0.494924 -0.577984 -1.144255 0.028241 -0.584090 0.000000 0.000000 0.000000 15.777874 -6.466629 10.106441 -1.047035 0.503156 -0.245142 -1.119857 0.013910 -0.188658 0.000000 0.000000 0.000000 12.789456 2.194161 3.493127 -1.840786 -1.019559 0.414141 -1.998416 -0.023496 0.306307 0.000000 0.000000 0.000000 8.295032 11.861422 -3.466560 -3.021402 -1.952008 1.413264 -2.723240 0.078801 1.223233 0.000000 0.000000 0.000000 0.000000 0.000000 0.000000 0.000000 0.000000 0.000000 -0.361417 -9.354046 13.450193 -0.060069 -0.655582 5.621491 -2.847074 -7.928711 17.701918 -0.753982 0.795154 -18.705208 0.000000 0.000000 0.000000 0.000000 0.000000 0.000000 0.000000 0.000000 0.000000 -0.998509 -6.163223 9.012750 0.072272 0.335201 9.461953 3.735158 -0.412207 17.293364 0.393368 -0.471332 -20.842356 0.000000 0.000000 0.000000 0.000000 0.000000 0.000000 0.000000 0.000000 0.000000 
0.229264 88.840462 2.968293 -0.380984 -1.277039 -9.832426 1.112403 0.050586 6.902414 -0.767990 0.322350 2.841634 0.354880 -0.806440 3.737753 -0.900193 0.246030 4.197098 1.602347 0.791681 4.022180 0.442800 1.638339 -3.823920 -0.552831 -0.820873 -19.574839 0.000000 0.000000 0.000000 92.475182 -0.261690 9.792036 68.050148 -25.119680 3.333158 0.078842 15.081332 25.475580 -2.701463 6.279435 -6.547027 16.411274 31.283562 65.533974 -4.494349 -5.530149 -10.022963 -3.204112 -3.647983 -6.855744 0.000000 0.000000 0.000000 -13.600476 -6.630546 9.972106 0.946819 0.474716 0.627827 0.676202 0.024647 0.590173 0.000000 0.000000 0.000000 -12.925583 -1.240868 5.739328 -0.113371 0.493561 0.215425 0.344836 -0.000588 0.184609 0.000000 0.000000 0.000000 -11.517524 6.498984 1.486100 0.221739 -0.988404 -0.394563 0.279382 -0.016850 -0.249705 0.000000 0.000000 0.000000 -11.300688 14.694342 -3.558839 0.376721 -1.921452 -1.154539 0.327337 0.067569 -0.947677 0.000000 0.000000 0.000000 0.000000 0.000000 0.000000 0.000000 0.000000 0.000000 -89.688202 0.086963 5.712934 -72.219910 16.235516 -5.470748 -0.135607 -10.349731 50.588017 11.178060 -11.538349 -12.042673 -15.441981 -31.683105 66.574989 3.221363 3.570470 -6.795808 2.233400 2.446170 -4.764154 0.000000 0.000000 0.000000 17.169626 -12.234385 16.042549 -1.181105 0.495841 -0.576792 -1.149943 0.029616 -0.578245 0.000000 0.000000 0.000000 16.665657 -6.616344 10.348351 -1.045872 0.504208 -0.242815 -1.123482 0.014765 -0.186582 0.000000 0.000000 0.000000 13.747550 2.029809 3.619893 -1.822620 -1.022204 0.405690 -1.977608 -0.025727 0.300996 0.000000 0.000000 0.000000 9.233696 11.708306 -3.438128 -2.984655 -1.956646 1.378857 -2.687291 0.072675 1.193515 0.000000 0.000000 0.000000 0.000000 0.000000 0.000000 0.000000 0.000000 0.000000 -0.373287 -9.400598 13.515695 -0.059745 -0.658368 5.539797 -2.864623 -7.861513 17.693594 -0.755325 0.794261 -18.680317 0.000000 0.000000 0.000000 0.000000 0.000000 0.000000 0.000000 0.000000 0.000000 -1.015225 -6.159685 9.060963 0.073064 0.336704 9.410203 3.747612 -0.364545 17.312765 0.391699 -0.470780 -20.851301 0.000000 0.000000 0.000000 0.000000 0.000000 0.000000 0.000000 0.000000 0.000000 
0.220726 88.844727 2.962446 -0.359260 -1.302136 -9.850276 1.094239 0.053795 6.900605 -0.751909 0.325079 2.846039 0.315113 -0.812049 3.748631 -0.902131 0.239759 4.190478 1.579032 0.798177 4.108470 0.462753 1.635671 -3.792098 -0.562453 -0.850760 -19.581696 0.000000 0.000000 0.000000 92.526085 -0.270179 9.778214 68.057320 -25.138355 3.222009 0.094143 15.098733 25.530704 -2.979361 5.908306 -6.598958 16.379631 31.296812 65.571136 -4.453986 -5.465294 -9.919431 -3.173553 -3.607409 -6.783504 0.000000 0.000000 0.000000 -13.929111 -6.568526 9.963465 0.924157 0.477291 0.609111 0.646734 0.027523 0.574094 0.000000 0.000000 0.000000 -13.240742 -1.184611 5.725645 -0.122695 0.495157 0.207176 0.343157 0.000668 0.178439 0.000000 0.000000 0.000000 -11.825554 6.550896 1.475915 0.241747 -0.991491 -0.382978 0.290571 -0.019440 -0.239864 0.000000 0.000000 0.000000 -11.592302 14.748949 -3.558090 0.424611 -1.929903 -1.114214 0.376028 0.058605 -0.911774 0.000000 0.000000 0.000000 0.000000 0.000000 0.000000 0.000000 0.000000 0.000000 -89.731964 0.102045 5.689042 -72.220062 16.205830 -5.601908 -0.141521 -10.298961 51.095844 11.703803 -11.105799 -11.814841 -15.382970 -31.709677 66.643318 3.140229 3.455900 -6.597269 2.172408 2.365793 -4.626278 0.000000 0.000000 0.000000 17.863567 -12.333402 16.243931 -1.178773 0.497508 -0.573239 -1.155981 0.031599 -0.570113 0.000000 0.000000 0.000000 17.324102 -6.724433 10.521655 -1.046075 0.505395 -0.239835 -1.126123 0.015643 -0.183794 0.000000 0.000000 0.000000 14.451509 1.907874 3.717472 -1.809061 -1.024931 0.396616 -1.962675 -0.028084 0.295212 0.000000 0.000000 0.000000 9.917261 11.591665 -3.405745 -2.957446 -1.961546 1.345342 -2.662121 0.066330 1.164581 0.000000 0.000000 0.000000 0.000000 0.000000 0.000000 0.000000 0.000000 0.000000 -0.393716 -9.440282 13.574688 -0.059644 -0.661746 5.466624 -2.872249 -7.825023 17.677883 -0.758355 0.793815 -18.654976 0.000000 0.000000 0.000000 0.000000 0.000000 0.000000 0.000000 0.000000 0.000000 -1.046576 -6.157463 9.095967 0.073628 0.337749 9.359630 3.764366 -0.330356 17.330166 0.388571 -0.470069 -20.852901 0.000000 0.000000 0.000000 0.000000 0.000000 0.000000 0.000000 0.000000 0.000000 
0.213672 88.846733 2.956189 -0.330121 -1.318393 -9.865223 1.069946 0.057564 6.902715 -0.735356 0.326415 2.844580 0.276596 -0.809097 3.763609 -0.905721 0.232581 4.181597 1.550227 0.812799 4.192663 0.477716 1.633220 -3.758135 -0.569883 -0.875578 -19.586376 0.000000 0.000000 0.000000 92.587570 -0.284269 9.769132 68.027367 -25.200357 3.134042 0.112665 15.102374 25.564655 -3.168696 5.655630 -6.654011 16.370819 31.301403 65.583061 -4.442135 -5.446654 -9.888776 -3.165155 -3.597953 -6.763149 0.000000 0.000000 0.000000 -14.060454 -6.542202 9.892346 0.924385 0.480413 0.590212 0.641240 0.030926 0.558439 0.000000 0.000000 0.000000 -13.364406 -1.161515 5.673100 -0.112451 0.496918 0.199608 0.360643 0.001994 0.172814 0.000000 0.000000 0.000000 -11.948647 6.571035 1.456909 0.273425 -0.994821 -0.372554 0.314586 -0.022152 -0.230866 0.000000 0.000000 0.000000 -11.703520 14.775686 -3.542990 0.480407 -1.938609 -1.077376 0.432082 0.049655 -0.879401 0.000000 0.000000 0.000000 0.000000 0.000000 0.000000 0.000000 0.000000 0.000000 -89.777016 0.115644 5.666835 -72.206688 16.173038 -5.695564 -0.156234 -10.243136 51.551445 12.125304 -10.827873 -11.641842 -15.346203 -31.727133 66.686661 3.088453 3.384550 -6.470904 2.134334 2.315260 -4.539257 0.000000 0.000000 0.000000 18.378305 -12.399739 16.360128 -1.175692 0.499511 -0.567709 -1.160230 0.033786 -0.560445 0.000000 0.000000 0.000000 17.803793 -6.800694 10.630335 -1.047811 0.506568 -0.236360 -1.127109 0.016492 -0.180546 0.000000 0.000000 0.000000 14.954008 1.819582 3.781654 -1.797711 -1.027494 0.387321 -1.951424 -0.030325 0.289211 0.000000 0.000000 0.000000 10.391870 11.505193 -3.378233 -2.935260 -1.966232 1.312721 -2.643868 0.060285 1.136636 0.000000 0.000000 0.000000 0.000000 0.000000 0.000000 0.000000 0.000000 0.000000 -0.423774 -9.471750 13.626660 -0.059694 -0.665476 5.401852 -2.869405 -7.818550 17.658367 -0.762863 0.793732 -18.631701 0.000000 0.000000 0.000000 0.000000 0.000000 0.000000 0.000000 0.000000 0.000000 -1.089829 -6.152710 9.117158 0.073955 0.338289 9.314281 3.785156 -0.309109 17.344637 0.384035 -0.468826 -20.848051 0.000000 0.000000 0.000000 0.000000 0.000000 0.000000 0.000000 0.000000 0.000000 
